<svg height="40" viewBox="0 0 64 64" width="40" xmlns="http://www.w3.org/2000/svg"><circle style="fill:#000000;" cx="32" cy="7" r="5"/><path style="fill:#000000;" d="m25 32h2l1 16h8l1-16h2a2 2 0 0 0 2-2v-11.084a4.916 4.916 0 0 0 -4.916-4.916h-8.168a4.916 4.916 0 0 0 -4.916 4.916v11.084a2 2 0 0 0 2 2z"/><path style="fill:#e53935;" d="m62 46h-4.1c-.965-4.731-8.72-8.516-19.245-9.65l-.111 2c9.683 1.05 16.165 4.325 17.27 7.65h-13.814v2h13.814c-1.3 3.927-10.1 7.784-22.814 7.98v-4.98h-2v4.98c-12.714-.196-21.513-4.053-22.814-7.98h13.814v-2h-13.814c1.105-3.325 7.587-6.6 17.275-7.647l-.111-2c-10.525 1.131-18.28 4.916-19.245 9.647h-4.105v2h4.107c1.131 5.544 11.586 9.786 24.893 9.99v4.01h2v-4.01c13.307-.2 23.762-4.446 24.893-9.99h4.107z"/></svg>